<?xml version="1.0" encoding="UTF-8"?>
<svg version="1.1" xmlns="http://www.w3.org/2000/svg" width="500" height="500">
<path d="M0 0 C165 0 330 0 500 0 C500 165 500 330 500 500 C335 500 170 500 0 500 C0 335 0 170 0 0 Z " fill="#FEFEFE" transform="translate(0,0)"/>
<path d="M0 0 C1.29336273 -0.01341431 1.29336273 -0.01341431 2.612854 -0.02709961 C19.02111979 -0.14100527 34.77107755 2.12330187 50.0625 8.3125 C50.93318115 8.65611572 51.8038623 8.99973145 52.70092773 9.35375977 C65.45258798 14.50344616 76.56400711 20.90767788 87.3125 29.5625 C88.28316406 30.32949219 89.25382813 31.09648438 90.25390625 31.88671875 C120.44385387 56.07975161 137.08934247 90.49210742 141.91552734 128.46191406 C142.69751482 135.80785698 142.70717448 143.18248015 142.6875 150.5625 C142.68662384 151.37065155 142.68574768 152.1788031 142.68484497 153.01144409 C142.5461772 191.95021858 129.47545082 226.31476416 102.953125 254.94140625 C100.19103841 257.6830632 97.33686632 260.11736173 94.3125 262.5625 C94.32821045 261.97460693 94.3439209 261.38671387 94.36010742 260.78100586 C94.88217941 238.1909291 92.29985991 218.9081574 76.44140625 201.65625 C66.20914777 191.1857284 53.12993654 184.32642007 40.3125 177.5625 C38.80062289 176.75811008 37.28890267 175.95342519 35.77734375 175.1484375 C30.62524831 172.41175863 25.46570852 169.6893086 20.296875 166.984375 C5.03911081 158.8647461 -10.97796737 149.72525008 -18.6875 133.5625 C-19.09871094 132.72203125 -19.50992188 131.8815625 -19.93359375 131.015625 C-23.72262497 122.15270076 -24.22889765 111.9964341 -21.625 102.6875 C-16.78615549 90.658223 -6.5106192 83.02362454 4.87109375 77.82421875 C12.26525105 75.1133075 19.27376831 74.1975063 27.125 74.25 C28.43984375 74.25737183 28.43984375 74.25737183 29.78125 74.26489258 C36.64452392 74.38844672 42.81743949 75.24816809 49.3125 77.5625 C50.2921875 77.9028125 51.271875 78.243125 52.28125 78.59375 C59.96114531 81.5231946 66.76664587 85.59507878 73.3125 90.5625 C73.3125 90.8925 73.3125 91.2225 73.3125 91.5625 C72.49007812 91.50449219 71.66765625 91.44648438 70.8203125 91.38671875 C62.85373782 91.06474402 56.82122515 91.70216706 50.3125 96.5625 C44.81032952 102.36964067 44.01388835 107.77772846 44.09765625 115.484375 C44.4842231 121.02282372 45.99670079 124.90835242 49.5 129.3125 C55.54193645 134.14604916 60.64179325 136.32149484 68.49609375 136.015625 C74.49091201 135.05113274 79.4240699 132.40250882 83.75 128.1875 C87.40650957 122.04456393 89.65158109 116.70057688 88.3125 109.5625 C82.90905647 94.73766776 72.23412672 85.41130214 58.38964844 78.61914062 C39.68440478 70.03840607 18.82921311 68.64116507 -0.6875 75.5625 C-9.27214919 79.03967938 -17.76169746 83.34742392 -24.6875 89.5625 C-25.42226562 90.20574219 -26.15703125 90.84898437 -26.9140625 91.51171875 C-35.14677858 99.1799844 -40.95415888 108.60810982 -43.6875 119.5625 C-43.86925781 120.28824219 -44.05101562 121.01398438 -44.23828125 121.76171875 C-47.16501639 140.0092761 -43.27774317 158.2954349 -32.65234375 173.46875 C-20.22848998 189.42036472 -2.21843631 198.44087573 15.3984375 207.5078125 C42.26800162 221.34277956 42.26800162 221.34277956 52.3125 229.5625 C53.19292969 230.26890625 54.07335937 230.9753125 54.98046875 231.703125 C60.86009341 236.67084332 64.94607645 241.64029157 68.3125 248.5625 C68.93125 249.77292969 68.93125 249.77292969 69.5625 251.0078125 C72.18146305 256.95504108 72.71632594 262.58326655 72.8125 269 C72.84029541 270.17272461 72.84029541 270.17272461 72.86865234 271.36914062 C72.83171274 274.70963964 72.65904102 277.04839104 70.76953125 279.8515625 C67.49723155 282.13020681 64.12292886 283.84690943 60.5 285.5 C59.74227295 285.84772461 58.9845459 286.19544922 58.20385742 286.55371094 C36.17528477 296.46898531 14.31531223 299.47801512 -9.6875 298.5625 C-10.41453125 298.54026367 -11.1415625 298.51802734 -11.890625 298.49511719 C-21.61365485 298.16939569 -28.22461503 296.40992115 -35.5 289.5625 C-36.26268188 288.84489502 -36.26268188 288.84489502 -37.04077148 288.11279297 C-43.57391099 281.88368595 -50.24646613 275.47974249 -54.6875 267.5625 C-53.36607551 277.78996356 -42.73271349 285.77715094 -35.6875 292.5625 C-39.72221889 294.23099277 -42.91299738 292.74821776 -46.75 291.25 C-47.78870239 290.85047119 -47.78870239 290.85047119 -48.84838867 290.44287109 C-61.98267944 285.20665745 -74.69550373 278.49143391 -85.6875 269.5625 C-86.19442383 269.15950684 -86.70134766 268.75651367 -87.22363281 268.34130859 C-108.73320233 251.18655594 -124.64950998 229.27419405 -133.5625 203.125 C-133.95538208 201.98502563 -133.95538208 201.98502563 -134.35620117 200.82202148 C-139.5634634 184.53199453 -141.32761556 168.52252909 -141.15405273 151.47973633 C-141.12492337 148.36681138 -141.13353896 145.25558356 -141.14648438 142.14257812 C-141.13132284 126.67980599 -139.73053476 112.02821578 -134.6875 97.3125 C-134.39407715 96.44826416 -134.1006543 95.58402832 -133.79833984 94.69360352 C-126.82570131 75.0934494 -115.92965284 58.60636343 -101.6875 43.5625 C-100.86765625 42.67820313 -100.0478125 41.79390625 -99.203125 40.8828125 C-72.72287933 13.227408 -37.71651745 0.19370995 0 0 Z " fill="#E0B79E" transform="translate(241.6875,92.4375)"/>
<path d="M0 0 C0.99 0.495 0.99 0.495 2 1 C1.154375 1.6290625 0.30875 2.258125 -0.5625 2.90625 C-20.63666167 17.97965699 -36.17413248 38.67597024 -40.33935547 64.06884766 C-44.25238539 95.62074711 -37.46831156 123.47507193 -18.0703125 148.48828125 C-2.94492672 166.65757247 19.56031544 176.23788579 42.625 178.625 C44.08288823 178.75508849 45.54107996 178.88204476 47 179 C47.33 178.34 47.66 177.68 48 177 C48.85658203 177.63941528 48.85658203 177.63941528 49.73046875 178.29174805 C56.4972505 183.20075774 63.54190957 187.06118233 71 190.8125 C73.39798494 192.03617761 75.79270175 193.26619379 78.1875 194.49609375 C79.34894531 195.09147949 80.51039063 195.68686523 81.70703125 196.30029297 C92.98139511 202.11969697 104.10088888 207.98943154 114 216 C114.88300781 216.70769531 115.76601563 217.41539062 116.67578125 218.14453125 C122.54991276 223.11361139 126.63486978 228.08045099 130 235 C130.61875 236.21042969 130.61875 236.21042969 131.25 237.4453125 C133.86896305 243.39254108 134.40382594 249.02076655 134.5 255.4375 C134.52779541 256.61022461 134.52779541 256.61022461 134.55615234 257.80664062 C134.51921274 261.14713964 134.34654102 263.48589104 132.45703125 266.2890625 C129.18473155 268.56770681 125.81042886 270.28440943 122.1875 271.9375 C121.42977295 272.28522461 120.6720459 272.63294922 119.89135742 272.99121094 C97.86278477 282.90648531 76.00281223 285.91551512 52 285 C51.27296875 284.97776367 50.5459375 284.95552734 49.796875 284.93261719 C40.07384515 284.60689569 33.46288497 282.84742115 26.1875 276 C25.42481812 275.28239502 25.42481812 275.28239502 24.64672852 274.55029297 C18.11358901 268.32118595 11.44103387 261.91724249 7 254 C8.32142449 264.22746356 18.95478651 272.21465094 26 279 C21.96528111 280.66849277 18.77450262 279.18571776 14.9375 277.6875 C13.89879761 277.28797119 13.89879761 277.28797119 12.83911133 276.88037109 C-0.29517944 271.64415745 -13.00800373 264.92893391 -24 256 C-24.50692383 255.59700684 -25.01384766 255.19401367 -25.53613281 254.77880859 C-47.04570233 237.62405594 -62.96200998 215.71169405 -71.875 189.5625 C-72.26788208 188.42252563 -72.26788208 188.42252563 -72.66870117 187.25952148 C-77.8759634 170.96949453 -79.64011556 154.96002909 -79.46655273 137.91723633 C-79.43742337 134.80431138 -79.44603896 131.69308356 -79.45898438 128.58007812 C-79.44382284 113.11730599 -78.04303476 98.46571578 -73 83.75 C-72.70657715 82.88576416 -72.4131543 82.02152832 -72.11083984 81.13110352 C-65.13820131 61.5309494 -54.24215284 45.04386343 -40 30 C-39.18015625 29.11570313 -38.3603125 28.23140625 -37.515625 27.3203125 C-26.89599633 16.22939853 -13.98375083 6.48173858 0 0 Z " fill="#E0B79E" transform="translate(180,106)"/>
<path d="M0 0 C5.85045816 4.90933968 9.6852564 10.14289092 13 17 C13.33 17.66 13.66 18.32 14 19 C14.78329793 25.64684246 14.47882291 30.78554921 10.4921875 36.28125 C6.48321394 40.89891588 2.20495591 44.47438051 -4.03125 45.25390625 C-9.85675017 45.56313657 -14.2485704 44.42102931 -19 41 C-24.0714029 36.25469618 -27.01202634 31.71858369 -27.3125 24.6875 C-27.14778899 19.17883175 -26.17757101 14.42490006 -22.41796875 10.23828125 C-16.40102103 4.82433919 -10.89471071 3.65359261 -3 3 C-9.46038171 -1.29887082 -15.77909428 -5.13838181 -23 -8 C-23.98226562 -8.41378906 -23.98226562 -8.41378906 -24.984375 -8.8359375 C-42.39985918 -15.87179311 -65.72249674 -15.9835759 -83.09570312 -8.83886719 C-88.9472098 -6.26120348 -94.6041355 -3.44397718 -100 0 C-100.75157599 0.41656137 -101.50315199 0.83312273 -102.27750301 1.26230717 C-106.06572926 3.66818951 -108.57225564 5.49846416 -109.83223152 9.92143059 C-110.14984031 13.61464368 -110.1785222 17.21510539 -110.11352539 20.92163086 C-110.1208572 22.33153771 -110.13214218 23.74142869 -110.14706421 25.15127563 C-110.17628328 28.96348534 -110.15044439 32.77354069 -110.11447453 36.58561778 C-110.08627524 40.57487631 -110.10904169 44.56384183 -110.12632751 48.55311584 C-110.15132451 56.10033352 -110.13070026 63.6467046 -110.09355396 71.19384438 C-110.05348118 79.7888473 -110.06446546 88.38354995 -110.07967007 96.97860515 C-110.10979509 114.65266702 -110.07602491 132.32609194 -110 150 C-109.07912598 150.44243042 -109.07912598 150.44243042 -108.13964844 150.89379883 C-105.57542321 152.21950678 -103.5147359 153.89751464 -101.25 155.6875 C-87.13953279 165.99395015 -72.03308762 168.92738978 -55 171 C-54.67 171.99 -54.34 172.98 -54 174 C-66.24378932 174.77738345 -79.16622341 171.77935666 -90 166 C-90.87914062 165.55785156 -91.75828125 165.11570312 -92.6640625 164.66015625 C-99.00548292 161.3671597 -104.50191171 157.54378499 -110 153 C-111.485 151.88625 -111.485 151.88625 -113 150.75 C-129.89686564 136.37366128 -140.48967163 112.8487073 -143 91 C-144.87113958 61.9645915 -139.5018502 35.89794973 -120.19921875 13.44921875 C-119.11060547 12.23685547 -119.11060547 12.23685547 -118 11 C-117.08154297 9.95779297 -117.08154297 9.95779297 -116.14453125 8.89453125 C-86.30033621 -22.98594149 -34.40187533 -26.17851334 0 0 Z " fill="#FE914D" transform="translate(281,111)"/>
<path d="M0 0 C0.33 0 0.66 0 1 0 C1.29620395 3.51869868 1.32310567 5.46941785 -0.5390625 8.52734375 C-1.22742188 9.32269531 -1.91578125 10.11804688 -2.625 10.9375 C-3.73101562 12.23107422 -3.73101562 12.23107422 -4.859375 13.55078125 C-5.56578125 14.35902344 -6.2721875 15.16726562 -7 16 C-7.50015625 16.63292969 -8.0003125 17.26585937 -8.515625 17.91796875 C-12.59386863 23.03921147 -17.54432939 27.38479658 -23 31 C-23.99 31 -24.98 31 -26 31 C-24.61308541 27.7778752 -23.07563327 25.96645599 -20.375 23.75 C-12.76739388 17.2546973 -6.94323392 10.84566146 -1.56640625 2.34375 C-1.04949219 1.5703125 -0.53257812 0.796875 0 0 Z " fill="#FC9454" transform="translate(302,236)"/>
<path d="M0 0 C0.495 0.99 0.495 0.99 1 2 C0.16339844 2.1959375 -0.67320312 2.391875 -1.53515625 2.59375 C-11.29166734 5.10040623 -19.2924625 9.05788412 -28 14 C-29.32730478 14.6785899 -30.65744672 15.35210115 -32 16 C-30.29450829 10.60079629 -27.77503034 9.17423582 -23 6.48828125 C-4.94117647 -2.47058824 -4.94117647 -2.47058824 0 0 Z " fill="#FB985C" transform="translate(209,97)"/>
<path d="M0 0 C3.53861321 0.440817 6.93599781 1.50790977 10.375 2.4375 C17.51871821 4.25460538 24.68745129 5.15086524 32 6 C32.495 7.485 32.495 7.485 33 9 C26.45069075 9.41582916 20.71793629 8.68877028 14.375 7.1875 C13.67125244 7.02217773 12.96750488 6.85685547 12.24243164 6.68652344 C7.33728657 5.47181805 2.70397703 3.84459324 -2 2 C-1.34 1.34 -0.68 0.68 0 0 Z " fill="#FA9658" transform="translate(194,276)"/>
</svg>
